<svg width="398" height="118" viewBox="0 0 398 118" fill="none" xmlns="http://www.w3.org/2000/svg">
<g clip-path="url(#clip0_867_962)">
<path d="M163.753 80.5657V89.5665H139.217V80.5657H163.753ZM143.385 41.0289V89.5665H131.684V41.0289H143.385Z" fill="#757575"/>
<path d="M185.622 90.2332C182.688 90.2332 180.066 89.7777 177.755 88.8664C175.443 87.933 173.488 86.6551 171.888 85.0328C170.31 83.4103 169.098 81.5435 168.254 79.4323C167.432 77.3209 167.021 75.0874 167.021 72.7317V71.4648C167.021 68.8202 167.387 66.3756 168.121 64.1309C168.854 61.8641 169.943 59.8862 171.388 58.1971C172.832 56.5081 174.643 55.1969 176.821 54.2635C178.999 53.3079 181.533 52.83 184.422 52.83C186.978 52.83 189.267 53.2411 191.289 54.0635C193.312 54.8858 195.023 56.0636 196.423 57.5972C197.845 59.1306 198.923 60.9862 199.657 63.1641C200.412 65.3423 200.79 67.7869 200.79 70.4983V75.0653H171.321V68.0312H189.822V67.1645C189.845 65.9644 189.633 64.9421 189.189 64.0975C188.767 63.253 188.144 62.6087 187.322 62.1642C186.5 61.7196 185.5 61.4975 184.322 61.4975C183.1 61.4975 182.088 61.7642 181.288 62.2974C180.511 62.8309 179.899 63.5643 179.455 64.4977C179.033 65.4088 178.733 66.4645 178.555 67.6646C178.377 68.8648 178.288 70.1314 178.288 71.4648V72.7317C178.288 74.0651 178.466 75.2765 178.822 76.3653C179.199 77.4544 179.733 78.3878 180.422 79.1656C181.133 79.9212 181.977 80.5102 182.955 80.9323C183.955 81.3547 185.089 81.5659 186.355 81.5659C187.889 81.5659 189.4 81.277 190.889 80.699C192.378 80.1212 193.656 79.1656 194.723 77.8322L199.823 83.8994C199.09 84.9439 198.045 85.9551 196.69 86.9328C195.356 87.9108 193.756 88.7108 191.889 89.3331C190.022 89.9331 187.933 90.2332 185.622 90.2332Z" fill="#757575"/>
<path d="M224.092 80.499V65.6312C224.092 64.6088 223.947 63.7309 223.66 62.9975C223.37 62.2641 222.913 61.6975 222.292 61.2975C221.669 60.8751 220.837 60.6639 219.792 60.6639C218.947 60.6639 218.225 60.8084 217.625 61.0973C217.025 61.3864 216.569 61.8198 216.258 62.3975C215.947 62.9753 215.791 63.7088 215.791 64.5976H204.557C204.557 62.9308 204.924 61.3864 205.657 59.9639C206.413 58.5194 207.479 57.2637 208.857 56.197C210.257 55.1301 211.924 54.308 213.858 53.73C215.814 53.13 217.991 52.83 220.391 52.83C223.258 52.83 225.815 53.3079 228.059 54.2635C230.327 55.2191 232.116 56.6526 233.426 58.5637C234.737 60.453 235.393 62.8309 235.393 65.6977V80.4656C235.393 82.8216 235.527 84.6105 235.793 85.8328C236.061 87.0329 236.438 88.0886 236.926 88.9997V89.5665H225.66C225.126 88.4552 224.724 87.0997 224.459 85.4995C224.215 83.877 224.092 82.2104 224.092 80.499ZM225.46 67.5314L225.526 73.5319H220.558C219.514 73.5319 218.625 73.6763 217.891 73.9652C217.18 74.2541 216.602 74.6541 216.158 75.1652C215.736 75.6543 215.425 76.2099 215.225 76.832C215.047 77.4544 214.958 78.1099 214.958 78.799C214.958 79.4657 215.114 80.0656 215.425 80.5991C215.758 81.1101 216.202 81.5103 216.758 81.7992C217.314 82.0881 217.936 82.2326 218.625 82.2326C219.868 82.2326 220.924 81.9992 221.791 81.5325C222.681 81.0436 223.359 80.4546 223.824 79.7655C224.292 79.0767 224.525 78.4321 224.525 77.8322L226.992 82.4325C226.549 83.3214 226.037 84.2217 225.46 85.1327C224.902 86.044 224.204 86.8885 223.359 87.6663C222.536 88.4219 221.526 89.0442 220.325 89.5331C219.125 89.9998 217.669 90.2332 215.958 90.2332C213.736 90.2332 211.691 89.7777 209.824 88.8664C207.979 87.9552 206.502 86.6885 205.39 85.0662C204.279 83.4215 203.724 81.5325 203.724 79.3989C203.724 77.5321 204.057 75.8652 204.724 74.3986C205.413 72.9317 206.446 71.6872 207.824 70.6649C209.202 69.6426 210.957 68.8648 213.091 68.3313C215.225 67.7979 217.736 67.5314 220.626 67.5314H225.46Z" fill="#757575"/>
<path d="M252.661 61.1974V89.5665H241.426V53.4967H251.961L252.661 61.1974ZM251.329 70.2983L248.694 70.3648C248.694 67.6091 249.028 65.1533 249.693 62.9975C250.36 60.8196 251.304 58.9749 252.527 57.4637C253.75 55.9525 255.205 54.8079 256.896 54.0301C258.606 53.2302 260.507 52.83 262.595 52.83C264.263 52.83 265.784 53.0745 267.163 53.5634C268.561 54.0523 269.762 54.8413 270.763 55.9303C271.784 57.0192 272.563 58.4639 273.097 60.264C273.652 62.0419 273.929 64.242 273.929 66.8645V89.5665H262.628V66.8313C262.628 65.3866 262.428 64.2866 262.028 63.531C261.629 62.7532 261.051 62.2197 260.294 61.9308C259.539 61.6419 258.617 61.4975 257.528 61.4975C256.373 61.4975 255.394 61.7196 254.595 62.1642C253.794 62.6087 253.151 63.2309 252.661 64.031C252.193 64.8088 251.849 65.731 251.627 66.7979C251.427 67.8646 251.329 69.0314 251.329 70.2983Z" fill="#757575"/>
<path d="M299.064 79.4323C299.064 78.8099 298.854 78.2767 298.432 77.8322C298.03 77.3655 297.321 76.9431 296.298 76.5653C295.275 76.1653 293.842 75.7653 291.998 75.3654C290.242 74.9876 288.586 74.4875 287.03 73.8651C285.498 73.2428 284.152 72.4872 282.997 71.5983C281.84 70.7092 280.929 69.6537 280.264 68.4314C279.619 67.2091 279.296 65.809 279.296 64.231C279.296 62.6974 279.619 61.2529 280.264 59.8974C280.929 58.5194 281.897 57.3083 283.164 56.2636C284.453 55.1969 286.02 54.3636 287.864 53.7634C289.708 53.1412 291.809 52.83 294.165 52.83C297.409 52.83 300.21 53.33 302.566 54.3302C304.921 55.308 306.732 56.6859 307.999 58.4639C309.288 60.2196 309.933 62.2531 309.933 64.5643H298.698C298.698 63.6532 298.542 62.8752 298.232 62.2309C297.943 61.5864 297.464 61.0973 296.799 60.7641C296.132 60.4084 295.242 60.2306 294.132 60.2306C293.352 60.2306 292.641 60.3751 291.998 60.6639C291.374 60.9528 290.876 61.353 290.499 61.8641C290.119 62.3754 289.93 62.9753 289.93 63.6642C289.93 64.1533 290.042 64.5976 290.264 64.9978C290.509 65.3756 290.876 65.731 291.363 66.0645C291.853 66.3756 292.476 66.6645 293.232 66.9312C293.987 67.1757 294.898 67.3979 295.965 67.5979C298.386 68.0424 300.654 68.6758 302.766 69.4981C304.877 70.3204 306.588 71.4872 307.898 72.9984C309.233 74.5097 309.9 76.5431 309.9 79.0988C309.9 80.699 309.531 82.177 308.798 83.5326C308.065 84.866 307.009 86.044 305.633 87.0663C304.254 88.0665 302.599 88.8442 300.665 89.3999C298.731 89.9555 296.553 90.2332 294.132 90.2332C290.687 90.2332 287.774 89.622 285.397 88.3997C283.019 87.1552 281.219 85.5994 279.996 83.7326C278.796 81.8436 278.196 79.9324 278.196 77.9988H288.663C288.709 79.11 288.975 80.0213 289.465 80.7323C289.976 81.4436 290.652 81.9658 291.497 82.2993C292.343 82.6325 293.319 82.7992 294.43 82.7992C295.453 82.7992 296.298 82.6547 296.966 82.3658C297.653 82.0769 298.175 81.6879 298.531 81.199C298.887 80.688 299.064 80.099 299.064 79.4323Z" fill="#757575"/>
<path d="M313.766 71.8984V71.1983C313.766 68.5535 314.143 66.12 314.898 63.8976C315.656 61.6529 316.767 59.7084 318.233 58.0639C319.699 56.4192 321.51 55.1413 323.666 54.2301C325.822 53.2967 328.311 52.83 331.134 52.83C333.98 52.83 336.478 53.2967 338.633 54.2301C340.813 55.1413 342.635 56.4192 344.102 58.0639C345.568 59.7084 346.679 61.6529 347.434 63.8976C348.192 66.12 348.569 68.5535 348.569 71.1983V71.8984C348.569 74.5208 348.192 76.9543 347.434 79.1989C346.679 81.4214 345.568 83.366 344.102 85.0328C342.635 86.6773 340.824 87.9552 338.669 88.8664C336.513 89.7777 334.023 90.2332 331.2 90.2332C328.377 90.2332 325.877 89.7777 323.699 88.8664C321.521 87.9552 319.699 86.6773 318.233 85.0328C316.767 83.366 315.656 81.4214 314.898 79.1989C314.143 76.9543 313.766 74.5208 313.766 71.8984ZM325.001 71.1983V71.8984C325.001 73.254 325.1 74.5208 325.299 75.6986C325.499 76.8766 325.833 77.9099 326.301 78.799C326.766 79.6656 327.4 80.3435 328.199 80.8324C329.001 81.3213 330 81.5659 331.2 81.5659C332.379 81.5659 333.356 81.3213 334.133 80.8324C334.934 80.3435 335.567 79.6656 336.034 78.799C336.502 77.9099 336.833 76.8766 337.035 75.6986C337.235 74.5208 337.334 73.254 337.334 71.8984V71.1983C337.334 69.8871 337.235 68.6536 337.035 67.498C336.833 66.32 336.502 65.2867 336.034 64.3976C335.567 63.4864 334.934 62.7753 334.133 62.2641C333.334 61.753 332.333 61.4975 331.134 61.4975C329.956 61.4975 328.968 61.753 328.167 62.2641C327.389 62.7753 326.766 63.4864 326.301 64.3976C325.833 65.2867 325.499 66.32 325.299 67.498C325.1 68.6536 325.001 69.8871 325.001 71.1983Z" fill="#757575"/>
<path d="M367.337 89.5664H356.036V50.5631C356.036 47.7628 356.602 45.4071 357.737 43.4959C358.87 41.5845 360.47 40.14 362.538 39.1622C364.604 38.1621 367.049 37.662 369.87 37.662C370.849 37.662 371.771 37.7287 372.638 37.862C373.505 37.9954 374.348 38.1621 375.172 38.3621L375.205 46.6294C374.805 46.5183 374.392 46.4406 373.971 46.396C373.549 46.3517 373.027 46.3293 372.403 46.3293C371.315 46.3293 370.393 46.4961 369.637 46.8294C368.882 47.1407 368.305 47.6184 367.903 48.2629C367.525 48.8852 367.337 49.6518 367.337 50.5631V89.5664ZM374.337 53.4966V61.2974H350.835V53.4966H374.337Z" fill="#757575"/>
<path d="M397.372 53.4967V61.2975H375.637V53.4967H397.372ZM380.205 44.5293H391.438V77.7988C391.438 78.7544 391.55 79.4991 391.772 80.0323C391.994 80.5436 392.373 80.9102 392.907 81.1326C393.462 81.3326 394.195 81.4324 395.106 81.4324C395.75 81.4324 396.283 81.4215 396.707 81.3991C397.128 81.3547 397.528 81.2992 397.905 81.2325V89.2664C396.95 89.5777 395.949 89.8111 394.907 89.9665C393.862 90.1443 392.751 90.2332 391.572 90.2332C389.173 90.2332 387.116 89.8554 385.406 89.0998C383.715 88.3442 382.427 87.1553 381.538 85.5327C380.648 83.9104 380.205 81.7993 380.205 79.199V44.5293Z" fill="#757575"/>
<path d="M100.059 17.1675C111.051 28.1597 117.226 43.0681 117.226 58.6134C117.226 74.1584 111.051 89.0671 100.059 100.059L79.3359 79.3364C84.832 73.8401 87.9196 66.3859 87.9196 58.6134C87.9196 50.8406 84.832 43.3864 79.3359 37.8904L100.059 17.1675Z" fill="#4CAF50"/>
<path d="M100.059 100.059C94.6161 105.502 88.1545 109.819 81.0432 112.765C73.9319 115.711 66.3102 117.227 58.613 117.227C50.9157 117.227 43.2938 115.711 36.1825 112.765C29.0712 109.819 22.6097 105.502 17.167 100.059L37.89 79.3363C40.6114 82.0575 43.8422 84.2164 47.3978 85.6892C50.9535 87.162 54.7642 87.92 58.613 87.92C62.4615 87.92 66.2724 87.162 69.8281 85.6892C73.3838 84.2164 76.6145 82.0575 79.336 79.3363L100.059 100.059Z" fill="#FFC107"/>
<path d="M17.1675 100.059C6.17532 89.067 9.75981e-06 74.1586 0 58.6133C-9.75977e-06 43.0681 6.17528 28.1596 17.1674 17.1675L37.8903 37.8903C32.3943 43.3864 29.3067 50.8408 29.3067 58.6133C29.3067 66.3859 32.3943 73.8403 37.8903 79.3363L17.1675 100.059Z" fill="#FF5722"/>
<path d="M17.167 17.1675C28.1592 6.17532 43.0676 5.37404e-06 58.6129 0C74.1582 -5.37403e-06 89.0666 6.1753 100.059 17.1674L79.3359 37.8903C73.8398 32.3943 66.3854 29.3067 58.6129 29.3067C50.8404 29.3067 43.3859 32.3943 37.8899 37.8903L17.167 17.1675Z" fill="#2196F3"/>
</g>
<defs>
<clipPath id="clip0_867_962">
<rect width="398" height="117.227" fill="white"/>
</clipPath>
</defs>
</svg>
